<mxfile host="app.diagrams.net" modified="2021-01-07T08:51:21.742Z" agent="5.0 (X11; Linux x86_64) AppleWebKit/537.36 (KHTML, like Gecko) Chrome/87.0.4280.66 Safari/537.36" etag="Q38rwoM96HosBANwxgGp" version="14.1.8" type="github">
  <diagram id="Q0wAWXPq6EU-7MKaFz7g" name="Page-1">
    <mxGraphModel dx="1355" dy="-694" grid="1" gridSize="10" guides="1" tooltips="1" connect="1" arrows="1" fold="1" page="1" pageScale="1" pageWidth="250" pageHeight="500" math="0" shadow="0">
      <root>
        <mxCell id="0" />
        <mxCell id="1" parent="0" />
        <mxCell id="SiysisjNYhSNsH_nGPSA-1" value="" style="shape=card;whiteSpace=wrap;html=1;strokeWidth=1;fillColor=none;rotation=-90;size=22;" vertex="1" parent="1">
          <mxGeometry x="1105.5" y="1806" width="38" height="46" as="geometry" />
        </mxCell>
        <mxCell id="SiysisjNYhSNsH_nGPSA-2" value="" style="shape=card;whiteSpace=wrap;html=1;strokeWidth=1;fillColor=none;rotation=-90;size=22;" vertex="1" parent="1">
          <mxGeometry x="1105.5" y="1737" width="38" height="46" as="geometry" />
        </mxCell>
        <mxCell id="SiysisjNYhSNsH_nGPSA-3" value=":DataGeneration&#xa;Controller" style="shape=umlLifeline;perimeter=lifelinePerimeter;container=1;collapsible=0;recursiveResize=0;rounded=0;shadow=0;strokeWidth=1;" vertex="1" parent="1">
          <mxGeometry x="257.5" y="1680" width="100" height="520" as="geometry" />
        </mxCell>
        <mxCell id="SiysisjNYhSNsH_nGPSA-4" value="" style="points=[];perimeter=orthogonalPerimeter;rounded=0;shadow=0;strokeWidth=1;" vertex="1" parent="SiysisjNYhSNsH_nGPSA-3">
          <mxGeometry x="45" y="70" width="10" height="420" as="geometry" />
        </mxCell>
        <mxCell id="SiysisjNYhSNsH_nGPSA-5" value="dispatch" style="verticalAlign=bottom;startArrow=oval;endArrow=block;startSize=8;shadow=0;strokeWidth=1;" edge="1" parent="SiysisjNYhSNsH_nGPSA-3" target="SiysisjNYhSNsH_nGPSA-4">
          <mxGeometry relative="1" as="geometry">
            <mxPoint x="-15" y="70" as="sourcePoint" />
          </mxGeometry>
        </mxCell>
        <mxCell id="SiysisjNYhSNsH_nGPSA-6" value=":DemoTransaction&#xa;Generator" style="shape=umlLifeline;perimeter=lifelinePerimeter;container=1;collapsible=0;recursiveResize=0;rounded=0;shadow=0;strokeWidth=1;" vertex="1" parent="1">
          <mxGeometry x="437.5" y="1680" width="100" height="520" as="geometry" />
        </mxCell>
        <mxCell id="SiysisjNYhSNsH_nGPSA-7" value="" style="points=[];perimeter=orthogonalPerimeter;rounded=0;shadow=0;strokeWidth=1;" vertex="1" parent="SiysisjNYhSNsH_nGPSA-6">
          <mxGeometry x="45" y="70" width="10" height="420" as="geometry" />
        </mxCell>
        <mxCell id="SiysisjNYhSNsH_nGPSA-8" value="[[if speed&lt;=0] cancel" style="verticalAlign=bottom;endArrow=block;entryX=0;entryY=0;shadow=0;strokeWidth=1;" edge="1" parent="1">
          <mxGeometry relative="1" as="geometry">
            <mxPoint x="312.5" y="1779.0000000000005" as="sourcePoint" />
            <mxPoint x="482.4999999999998" y="1779.0000000000005" as="targetPoint" />
          </mxGeometry>
        </mxCell>
        <mxCell id="SiysisjNYhSNsH_nGPSA-9" value="&lt;font style=&quot;font-size: 30px&quot;&gt;Change Generator Speed (&lt;/font&gt;&lt;font style=&quot;font-size: 20px&quot;&gt;/api/generatorSpeed/{speed}&lt;/font&gt;&lt;font style=&quot;font-size: 30px&quot;&gt;)&lt;/font&gt;" style="text;html=1;strokeColor=none;fillColor=none;align=center;verticalAlign=middle;whiteSpace=wrap;rounded=0;" vertex="1" parent="1">
          <mxGeometry x="350" y="1600" width="690" height="50" as="geometry" />
        </mxCell>
        <mxCell id="SiysisjNYhSNsH_nGPSA-10" value="" style="rounded=0;whiteSpace=wrap;html=1;" vertex="1" parent="1">
          <mxGeometry x="942.5" y="1840" width="155" height="60" as="geometry" />
        </mxCell>
        <mxCell id="SiysisjNYhSNsH_nGPSA-11" value="Start Data Generation" style="text;html=1;strokeColor=none;fillColor=none;align=center;verticalAlign=middle;whiteSpace=wrap;rounded=0;" vertex="1" parent="1">
          <mxGeometry x="942.5" y="1861" width="155" height="20" as="geometry" />
        </mxCell>
        <mxCell id="SiysisjNYhSNsH_nGPSA-12" value=":MessageListener&#xa;Container" style="shape=umlLifeline;perimeter=lifelinePerimeter;container=1;collapsible=0;recursiveResize=0;rounded=0;shadow=0;strokeWidth=1;" vertex="1" parent="1">
          <mxGeometry x="617.5" y="1680" width="100" height="520" as="geometry" />
        </mxCell>
        <mxCell id="SiysisjNYhSNsH_nGPSA-13" value="" style="points=[];perimeter=orthogonalPerimeter;rounded=0;shadow=0;strokeWidth=1;" vertex="1" parent="SiysisjNYhSNsH_nGPSA-12">
          <mxGeometry x="45" y="70" width="10" height="420" as="geometry" />
        </mxCell>
        <mxCell id="SiysisjNYhSNsH_nGPSA-14" value="[else] generateTransaction" style="verticalAlign=bottom;endArrow=block;shadow=0;strokeWidth=1;" edge="1" parent="1">
          <mxGeometry relative="1" as="geometry">
            <mxPoint x="312.5" y="1872.5172413793107" as="sourcePoint" />
            <mxPoint x="942.5" y="1872.5172413793107" as="targetPoint" />
          </mxGeometry>
        </mxCell>
        <mxCell id="SiysisjNYhSNsH_nGPSA-15" value=":KafkaListener&#xa;EndpointRegistry" style="shape=umlLifeline;perimeter=lifelinePerimeter;container=1;collapsible=0;recursiveResize=0;rounded=0;shadow=0;strokeWidth=1;" vertex="1" parent="1">
          <mxGeometry x="807.5" y="1680" width="100" height="520" as="geometry" />
        </mxCell>
        <mxCell id="SiysisjNYhSNsH_nGPSA-16" value="" style="points=[];perimeter=orthogonalPerimeter;rounded=0;shadow=0;strokeWidth=1;" vertex="1" parent="SiysisjNYhSNsH_nGPSA-15">
          <mxGeometry x="45" y="70" width="10" height="420" as="geometry" />
        </mxCell>
        <mxCell id="SiysisjNYhSNsH_nGPSA-17" value="getListenerContainer" style="verticalAlign=bottom;endArrow=block;shadow=0;strokeWidth=1;" edge="1" parent="1">
          <mxGeometry relative="1" as="geometry">
            <mxPoint x="312.5" y="1925" as="sourcePoint" />
            <mxPoint x="662.4999999999998" y="1925" as="targetPoint" />
          </mxGeometry>
        </mxCell>
        <mxCell id="SiysisjNYhSNsH_nGPSA-18" value="getListenerContainer" style="verticalAlign=bottom;endArrow=block;shadow=0;strokeWidth=1;" edge="1" parent="1">
          <mxGeometry relative="1" as="geometry">
            <mxPoint x="672.4999999999998" y="1947" as="sourcePoint" />
            <mxPoint x="852.5" y="1947" as="targetPoint" />
          </mxGeometry>
        </mxCell>
        <mxCell id="SiysisjNYhSNsH_nGPSA-19" value="Alt" style="text;html=1;strokeColor=none;fillColor=none;align=center;verticalAlign=middle;whiteSpace=wrap;rounded=0;" vertex="1" parent="1">
          <mxGeometry x="1107.5" y="1746" width="40" height="20" as="geometry" />
        </mxCell>
        <mxCell id="SiysisjNYhSNsH_nGPSA-20" value="Alt" style="text;html=1;strokeColor=none;fillColor=none;align=center;verticalAlign=middle;whiteSpace=wrap;rounded=0;" vertex="1" parent="1">
          <mxGeometry x="1107.5" y="1817" width="40" height="20" as="geometry" />
        </mxCell>
        <mxCell id="SiysisjNYhSNsH_nGPSA-21" value="" style="rounded=0;whiteSpace=wrap;html=1;strokeWidth=1;fillColor=none;" vertex="1" parent="1">
          <mxGeometry x="297.5" y="1740" width="850" height="70" as="geometry" />
        </mxCell>
        <mxCell id="SiysisjNYhSNsH_nGPSA-22" value="[if speed &gt; transactionRateDisplayLimit] stop" style="verticalAlign=bottom;endArrow=block;shadow=0;strokeWidth=1;" edge="1" parent="1">
          <mxGeometry relative="1" as="geometry">
            <mxPoint x="312.5" y="1998" as="sourcePoint" />
            <mxPoint x="662.4999999999998" y="1998" as="targetPoint" />
          </mxGeometry>
        </mxCell>
        <mxCell id="SiysisjNYhSNsH_nGPSA-23" value="[if speed &lt;= transactionRateDisplayLimit&#xa;&amp;&amp; !listenerContainerRunning] start" style="verticalAlign=bottom;endArrow=block;shadow=0;strokeWidth=1;" edge="1" parent="1">
          <mxGeometry relative="1" as="geometry">
            <mxPoint x="312.5" y="2050" as="sourcePoint" />
            <mxPoint x="662.4999999999998" y="2050" as="targetPoint" />
          </mxGeometry>
        </mxCell>
        <mxCell id="SiysisjNYhSNsH_nGPSA-24" value="[if transactionGenerator != null] &#xa;adjustMaxRecordsPerSecond" style="verticalAlign=bottom;endArrow=block;shadow=0;strokeWidth=1;" edge="1" parent="1" target="SiysisjNYhSNsH_nGPSA-7">
          <mxGeometry relative="1" as="geometry">
            <mxPoint x="312.5" y="2120" as="sourcePoint" />
            <mxPoint x="662.4999999999998" y="2120" as="targetPoint" />
          </mxGeometry>
        </mxCell>
        <mxCell id="SiysisjNYhSNsH_nGPSA-25" value="" style="rounded=0;whiteSpace=wrap;html=1;strokeWidth=1;fillColor=none;" vertex="1" parent="1">
          <mxGeometry x="297.5" y="1810" width="850" height="340" as="geometry" />
        </mxCell>
      </root>
    </mxGraphModel>
  </diagram>
</mxfile>
